HIERARCHY
ROOT Hips
{
	OFFSET 0.000000 0.000000 0.000000
	CHANNELS 6 Xposition Yposition Zposition Zrotation Yrotation Xrotation 
	JOINT LHipJoint
	{
		OFFSET 0.000000 0.000000 0.000000
		CHANNELS 3 Zrotation Yrotation Xrotation
		JOINT LeftUpLeg
		{
			OFFSET 1.363060 -1.794630 0.839290
			CHANNELS 3 Zrotation Yrotation Xrotation
			JOINT LeftLeg
			{
				OFFSET 2.448110 -6.726130 0.000000
				CHANNELS 3 Zrotation Yrotation Xrotation
				JOINT LeftFoot
				{
					OFFSET 2.562200 -7.039590 0.000000
					CHANNELS 3 Zrotation Yrotation Xrotation
					JOINT LeftToeBase
					{
						OFFSET 0.157640 -0.433110 2.322550
						CHANNELS 3 Zrotation Yrotation Xrotation
						End Site
						{
							OFFSET 0.000000 0.000000 0.000000
						}
					}
				}
			}
		}
	}
	JOINT RHipJoint
	{
		OFFSET 0.000000 0.000000 0.000000
		CHANNELS 3 Zrotation Yrotation Xrotation
		JOINT RightUpLeg
		{
			OFFSET -1.305520 -1.794630 0.839290
			CHANNELS 3 Zrotation Yrotation Xrotation
			JOINT RightLeg
			{
				OFFSET -2.542530 -6.985550 0.000000
				CHANNELS 3 Zrotation Yrotation Xrotation
				JOINT RightFoot
				{
					OFFSET -2.568260 -7.056230 0.000000
					CHANNELS 3 Zrotation Yrotation Xrotation
					JOINT RightToeBase
					{
						OFFSET -0.164730 -0.452590 2.363150
						CHANNELS 3 Zrotation Yrotation Xrotation
						End Site
						{
							OFFSET 0.000000 0.000000 0.000000
						}
					}
				}
			}
		}
	}
	JOINT LowerBack
	{
		OFFSET 0.000000 0.000000 0.000000
		CHANNELS 3 Zrotation Yrotation Xrotation
		JOINT Spine
		{
			OFFSET 0.028270 2.035590 -0.193380
			CHANNELS 3 Zrotation Yrotation Xrotation
			JOINT Spine1
			{
				OFFSET 0.056720 2.048850 -0.042750
				CHANNELS 3 Zrotation Yrotation Xrotation
				JOINT Neck
				{
					OFFSET 0.000000 0.000000 0.000000
					CHANNELS 3 Zrotation Yrotation Xrotation
					JOINT Neck1
					{
						OFFSET -0.054170 1.746240 0.172020
						CHANNELS 3 Zrotation Yrotation Xrotation
						JOINT Head
						{
							OFFSET 0.104070 1.761360 -0.123970
							CHANNELS 3 Zrotation Yrotation Xrotation
							End Site
							{
								OFFSET 0.000000 0.000000 0.000000
							}
						}
					}
				}
				JOINT LeftShoulder
				{
					OFFSET 0.000000 0.000000 0.000000
					CHANNELS 3 Zrotation Yrotation Xrotation
					JOINT LeftArm
					{
						OFFSET 3.362410 1.200890 -0.311210
						CHANNELS 3 Zrotation Yrotation Xrotation
						JOINT LeftForeArm
						{
							OFFSET 4.983000 -0.000000 -0.000000
							CHANNELS 3 Zrotation Yrotation Xrotation
							JOINT LeftHand
							{
								OFFSET 3.483560 -0.000000 -0.000000
								CHANNELS 3 Zrotation Yrotation Xrotation
								JOINT LeftFingerBase
								{
									OFFSET 0.000000 0.000000 0.000000
									CHANNELS 3 Zrotation Yrotation Xrotation
									JOINT LeftHandIndex1
									{
										OFFSET 0.715260 -0.000000 -0.000000
										CHANNELS 3 Zrotation Yrotation Xrotation
										End Site
										{
											OFFSET 0.000000 0.000000 0.000000
										}
									}
								}
								JOINT LThumb
								{
									OFFSET 0.000000 0.000000 0.000000
									CHANNELS 3 Zrotation Yrotation Xrotation
									End Site
									{
										OFFSET 0.000000 0.000000 0.000000
									}
								}
							}
						}
					}
				}
				JOINT RightShoulder
				{
					OFFSET 0.000000 0.000000 0.000000
					CHANNELS 3 Zrotation Yrotation Xrotation
					JOINT RightArm
					{
						OFFSET -3.136600 1.374050 -0.404650
						CHANNELS 3 Zrotation Yrotation Xrotation
						JOINT RightForeArm
						{
							OFFSET -5.241900 -0.000000 -0.000000
							CHANNELS 3 Zrotation Yrotation Xrotation
							JOINT RightHand
							{
								OFFSET -3.444170 -0.000000 -0.000000
								CHANNELS 3 Zrotation Yrotation Xrotation
								JOINT RightFingerBase
								{
									OFFSET 0.000000 0.000000 0.000000
									CHANNELS 3 Zrotation Yrotation Xrotation
									JOINT RightHandIndex1
									{
										OFFSET -0.622530 -0.000000 -0.000000
										CHANNELS 3 Zrotation Yrotation Xrotation
										End Site
										{
											OFFSET 0.000000 0.000000 0.000000
										}
									}
								}
								JOINT RThumb
								{
									OFFSET 0.000000 0.000000 0.000000
									CHANNELS 3 Zrotation Yrotation Xrotation
									End Site
									{
										OFFSET 0.000000 0.000000 0.000000
									}
								}
							}
						}
					}
				}
			}
		}
	}
}
MOTION
Frames: 11
Frame Time: 0.008333
-12.741531 17.894155 -4.865991 3.659229 49.401777 10.873530 -2.237354 1.349955 1.874319 -22.616267 -2.116875 -16.968274 0.287248 7.463372 24.473705 1.115823 -3.727303 -1.198723 0.188500 -2.796500 -7.712600 1.387965 -1.048508 0.167307 11.201876 6.810419 -33.615206 -2.095586 -11.245085 32.202062 1.251766 -7.013077 -2.011620 -0.182800 -2.753600 7.593400 -5.058208 1.472929 1.920289 0.286558 1.344218 -0.856034 4.311417 1.072361 0.104310 -7.191382 3.049696 -11.740361 0.680281 7.372208 30.724508 2.736300 1.860600 16.202600 -11.007976 -1.223247 -1.580263 -75.422540 0.243771 8.741830 9.072715 -18.819537 -1.835122 -0.273623 -1.769398 9.048985 12.061438 22.986625 5.127300 -7.125000 0.000000 0.000000 -18.389800 54.330800 -4.327700 9.507100 1.455550 -1.740316 74.033455 -1.221865 20.982248 -18.713089 26.344106 -5.457608 0.647640 -0.575659 19.743978 -20.652652 3.047022 -1.325500 7.125000 0.000000 0.000000 3.920500 -26.350500 1.776900 
-12.720594 17.896784 -4.849100 3.624521 49.556352 10.841242 -2.243035 1.358767 1.888570 -22.556220 -2.194754 -16.819604 0.278121 7.438601 24.415875 1.134865 -3.816485 -1.200285 0.158700 -2.566900 -7.075200 1.396635 -1.040142 0.151416 11.186409 6.949400 -33.676449 -2.017016 -11.133580 31.819002 1.231594 -6.923687 -1.167033 -0.198000 -2.865700 7.905100 -4.979981 1.440433 2.002132 0.282445 1.302367 -0.836367 4.266072 1.050163 0.096086 -7.134895 3.070052 -11.641636 0.642699 7.389491 30.740679 2.708600 1.874100 16.185400 -11.014176 -1.221880 -1.582048 -75.463886 0.330093 9.184976 9.138563 -18.929556 -1.858689 -0.266982 -1.774894 8.951242 12.033685 23.067310 5.129800 -7.125000 0.000000 0.000000 -18.468200 54.406100 -4.381500 9.524281 1.447533 -1.736674 73.989447 -1.289386 20.663513 -18.370715 25.950388 -5.284409 0.663980 -0.578306 19.836382 -20.674960 2.841471 -1.245900 7.125000 0.000000 0.000000 3.894700 -26.574100 1.744700 
-12.700771 17.896784 -4.830086 3.545675 49.659032 10.753402 -2.249790 1.371235 1.905858 -22.473092 -2.260175 -16.661497 0.273828 7.422985 24.382969 1.140937 -3.832268 -1.256570 0.163800 -2.607800 -7.188700 1.414445 -1.037458 0.136042 11.121139 7.321845 -33.629691 -1.947987 -11.025776 31.462281 1.265373 -7.070442 -0.543990 -0.230000 -3.086600 8.519900 -4.874353 1.411427 2.136686 0.275246 1.264533 -0.810936 4.200757 1.030482 0.072249 -7.114498 3.110315 -11.654945 0.657713 7.454766 30.829120 2.722700 1.901200 16.232800 -11.017658 -1.221223 -1.588088 -75.431256 0.428472 9.800949 9.234106 -19.092808 -1.895040 -0.257372 -1.781993 8.596219 12.065096 23.116960 5.154500 -7.125000 0.000000 0.000000 -18.467000 54.464800 -4.408100 9.541222 1.443474 -1.733041 73.997411 -1.303932 20.139739 -18.038195 25.564087 -5.120994 0.665724 -0.592586 20.043655 -20.660739 2.855870 -1.255100 7.125000 0.000000 0.000000 3.899300 -26.547900 1.749200 
-12.679632 17.897796 -4.809048 3.287177 49.755034 10.579405 -2.259717 1.384593 1.921006 -22.256745 -2.429756 -16.485758 0.259325 7.395212 24.303222 1.118757 -3.698648 -1.341491 0.181000 -2.740200 -7.556200 1.435516 -1.036542 0.120564 11.217793 7.637816 -33.634587 -1.892005 -10.934323 31.161686 1.324063 -7.337167 0.131456 -0.236300 -3.128600 8.637000 -4.667026 1.390287 2.133067 0.314597 1.246477 -0.760012 4.158398 1.014576 0.169396 -7.195684 3.086303 -11.721389 0.687326 7.449397 30.870869 2.751900 1.888100 16.267900 -11.017284 -1.217072 -1.588660 -75.537449 0.419873 10.075168 9.317743 -19.221681 -1.924638 -0.251120 -1.787106 8.470842 12.061975 23.206467 5.169900 -7.125000 0.000000 0.000000 -18.525100 54.553200 -4.463200 9.566806 1.443618 -1.725623 73.963706 -1.204186 19.524448 -17.675004 25.135171 -4.942324 0.657009 -0.595922 20.277297 -20.400417 2.830967 -1.229500 7.125000 0.000000 0.000000 4.102300 -26.577200 1.837800 
-12.658595 17.903561 -4.785381 3.296645 49.886282 10.591428 -2.266021 1.396383 1.937071 -22.219970 -2.471075 -16.328799 0.248414 7.366102 24.232080 1.148944 -3.833051 -1.377369 0.157200 -2.555000 -7.042200 1.447136 -1.035575 0.103427 11.138202 7.935414 -33.607584 -1.848551 -10.862106 30.908246 1.400543 -7.685048 0.620356 -0.230800 -3.092300 8.535900 -4.747895 1.353763 2.129342 0.358763 1.199103 -0.729916 4.281647 0.985228 0.224130 -7.157041 3.088638 -11.611401 0.546480 7.457074 30.816376 2.675200 1.886700 16.210900 -11.020057 -1.220200 -1.580209 -75.736266 0.349983 9.997681 9.309465 -19.194287 -1.918265 -0.254630 -1.783801 8.705202 12.031920 23.213981 5.156100 -7.125000 0.000000 0.000000 -18.560900 54.551500 -4.471500 9.588814 1.431217 -1.725580 73.854898 -1.296406 19.104032 -17.402541 24.815993 -4.809827 0.671890 -0.587292 20.396930 -20.323222 2.537831 -1.106400 7.125000 0.000000 0.000000 4.159500 -26.907700 1.831200 
-12.638974 17.903662 -4.765153 3.441126 50.115456 10.716303 -2.267534 1.404041 1.950604 -22.290952 -2.414910 -16.238453 0.237756 7.335836 24.159546 1.199728 -4.081150 -1.362003 0.154500 -2.532400 -6.979600 1.443651 -1.028059 0.088782 11.013574 7.976472 -33.660528 -1.814008 -10.812582 30.715575 1.425611 -7.820126 1.034530 -0.322000 -3.647200 10.086200 -4.810670 1.316601 2.228316 0.346926 1.146853 -0.729031 4.299490 0.957787 0.172651 -7.225965 3.015192 -11.551691 0.634099 7.358238 30.864605 2.712400 1.848600 16.226600 -11.023644 -1.207873 -1.582564 -75.807981 0.367586 10.352420 9.357842 -19.268936 -1.938755 -0.240812 -1.780610 8.664709 11.815060 23.129927 5.038800 -7.125000 0.000000 0.000000 -18.737400 54.423100 -4.456800 9.589942 1.432980 -1.728686 73.889902 -1.523504 18.401110 -17.273956 24.673209 -4.753462 0.663260 -0.592982 20.598675 -20.228179 2.620573 -1.134500 7.125000 0.000000 0.000000 4.233600 -26.815500 1.873300 
-12.617026 17.902954 -4.743206 3.413526 50.312365 10.742662 -2.272806 1.413009 1.966873 -22.238630 -2.401740 -16.135129 0.220253 7.296565 24.054308 1.234251 -4.242857 -1.346024 0.160900 -2.584200 -7.123100 1.444071 -1.024196 0.075445 10.990663 8.102186 -33.718521 -1.794222 -10.785761 30.612200 1.468997 -8.005649 1.002601 -0.509200 -4.574100 12.697700 -4.823914 1.245420 2.245102 0.387243 1.051174 -0.745495 4.376556 0.909997 0.143688 -7.229451 2.994619 -11.504789 0.614691 7.344686 30.933887 2.700200 1.839200 16.256600 -11.017187 -1.194978 -1.587333 -75.960741 0.508058 10.542977 9.429988 -19.386532 -1.972111 -0.234864 -1.764710 8.727166 11.721874 22.750362 4.921600 -7.125000 0.000000 0.000000 -18.617200 54.028100 -4.244300 9.590538 1.420547 -1.738511 73.898800 -1.845539 17.876168 -17.230274 24.633893 -4.737639 0.669632 -0.591605 20.828420 -20.274843 2.504302 -1.090300 7.125000 0.000000 0.000000 4.196000 -26.945900 1.843600 
-12.596292 17.899616 -4.720550 3.405461 50.458751 10.748743 -2.281430 1.430176 1.978068 -22.178450 -2.713124 -15.872001 0.204757 7.262697 23.966565 1.199103 -4.069070 -1.433485 0.151300 -2.506600 -6.908000 1.445110 -1.026228 0.062067 10.975105 8.237593 -33.762355 -1.793377 -10.780878 30.564839 1.590158 -8.529429 1.089462 -0.616900 -5.026600 13.984300 -4.828568 1.175558 2.271623 0.430339 0.960505 -0.722731 4.453336 0.858812 0.183627 -7.328915 3.013188 -11.558811 0.654660 7.418175 31.035834 2.747400 1.854000 16.317800 -11.013559 -1.185455 -1.589845 -76.102607 0.535547 10.683853 9.470013 -19.447281 -1.986796 -0.240322 -1.758918 8.770086 11.833467 22.624216 4.947000 -7.125000 0.000000 0.000000 -18.432000 53.924900 -4.152600 9.601559 1.414302 -1.742292 73.828470 -2.007187 17.483819 -17.118057 24.507271 -4.685148 0.679399 -0.579475 20.940257 -20.198288 2.258609 -0.985600 7.125000 0.000000 0.000000 4.257400 -27.227100 1.842600 
-12.574446 17.900021 -4.700423 3.439191 50.588195 10.866514 -2.284900 1.437196 1.982756 -22.165540 -2.966493 -15.728191 0.192924 7.237949 23.901209 1.182927 -3.981090 -1.533476 0.134000 -2.359800 -6.501100 1.432394 -1.021066 0.043456 11.003976 8.188112 -33.978293 -1.809349 -10.803126 30.573327 1.725938 -9.154584 1.558093 -0.594600 -4.936500 13.727600 -4.754632 1.132635 2.245245 0.405019 0.907093 -0.729365 4.373590 0.831159 0.196776 -7.337128 3.012753 -11.573970 0.686421 7.421829 31.085177 2.766500 1.855100 16.348400 -11.015276 -1.179304 -1.595157 -76.046196 0.593153 11.233947 9.539384 -19.565302 -2.008042 -0.234692 -1.779966 8.550878 11.884350 23.047406 5.052300 -7.125000 0.000000 0.000000 -18.625000 54.356600 -4.397900 9.604258 1.407893 -1.746237 73.865916 -2.211849 17.181760 -16.987706 24.357493 -4.623778 0.698183 -0.571067 20.849374 -20.234829 2.028110 -0.894400 7.125000 0.000000 0.000000 4.225500 -27.486400 1.802800 
-12.552802 17.899819 -4.682622 3.433293 50.819165 10.981227 -2.288136 1.441659 1.982957 -22.109056 -3.256184 -15.624762 0.177864 7.212061 23.826923 1.176053 -3.945013 -1.573022 0.115500 -2.191200 -6.034500 1.414666 -1.015098 0.025495 11.044221 8.119893 -34.220356 -1.843689 -10.855450 30.680718 1.878907 -9.823508 1.661338 -0.754100 -5.546300 15.473500 -4.641144 1.106294 2.225455 0.394831 0.876313 -0.743702 4.294979 0.815756 0.190279 -7.347998 2.918553 -11.607484 0.730078 7.286251 31.129438 2.771400 1.802800 16.394300 -11.014260 -1.169694 -1.599133 -76.047242 0.604829 11.845019 9.628993 -19.709240 -2.037445 -0.230258 -1.796568 8.213797 12.004100 23.359294 5.169100 -7.125000 0.000000 0.000000 -18.685400 54.691900 -4.568000 9.607140 1.405647 -1.748907 73.856485 -2.463177 16.798601 -16.875293 24.231631 -4.571461 0.716848 -0.553932 20.658661 -20.191513 1.754438 -0.780100 7.125000 0.000000 0.000000 4.259700 -27.800300 1.785900 
-12.532978 17.898908 -4.661079 3.435164 51.007438 11.077253 -2.290593 1.447363 1.987352 -22.057180 -3.449928 -15.536979 0.167326 7.192249 23.771852 1.178511 -3.944151 -1.640235 0.115900 -2.194800 -6.044200 1.394247 -1.011234 0.008785 11.134603 8.023139 -34.471345 -1.899311 -10.939827 30.895576 2.054880 -10.560943 1.505476 -1.028800 -6.451800 18.101200 -4.599616 1.097592 2.283274 0.404375 0.862185 -0.781765 4.290738 0.813679 0.092960 -7.302956 2.840778 -11.541475 0.699966 7.167938 31.163913 2.730800 1.760100 16.412800 -11.010650 -1.161635 -1.602779 -76.165570 0.689664 12.189726 9.723796 -19.856902 -2.074327 -0.225943 -1.795686 8.007532 12.065615 23.288554 5.183500 -7.125000 0.000000 0.000000 -18.581700 54.635700 -4.515500 9.605891 1.399604 -1.755435 73.895178 -2.741024 16.190017 -16.786660 24.132890 -4.533203 0.722272 -0.550196 20.583443 -20.161812 1.710485 -0.760500 7.125000 0.000000 0.000000 4.281500 -27.852200 1.789800 
